<?xml version="1.0" encoding="UTF-8"?>
<svg height="16px" viewBox="0 0 16 16" width="16px" xmlns="http://www.w3.org/2000/svg">
    <g fill="#5e5c64">
        <path d="m 1 6 c 0.550781 0 1 0.449219 1 1 v 2 c 0 0.550781 -0.449219 1 -1 1 s -1 -0.449219 -1 -1 v -2 c 0 -0.550781 0.449219 -1 1 -1 z m 0 0"/>
        <path d="m 4 4 c 0.550781 0 1 0.449219 1 1 v 6 c 0 0.550781 -0.449219 1 -1 1 s -1 -0.449219 -1 -1 v -6 c 0 -0.550781 0.449219 -1 1 -1 z m 0 0"/>
        <path d="m 7 0 c 0.550781 0 1 0.449219 1 1 v 14 c 0 0.550781 -0.449219 1 -1 1 s -1 -0.449219 -1 -1 v -14 c 0 -0.550781 0.449219 -1 1 -1 z m 0 0"/>
        <path d="m 10 4 c 0.550781 0 1 0.449219 1 1 v 6 c 0 0.550781 -0.449219 1 -1 1 s -1 -0.449219 -1 -1 v -6 c 0 -0.550781 0.449219 -1 1 -1 z m 0 0"/>
        <path d="m 13 7 c 0.550781 0 1 0.449219 1 1 s -0.449219 1 -1 1 s -1 -0.449219 -1 -1 s 0.449219 -1 1 -1 z m 0 0"/>
    </g>
</svg>
